<svg xmlns="http://www.w3.org/2000/svg" viewBox="0 0 32 32">
  <rect width="32" height="32" rx="6" fill="#1a7fdb"/>
  <!-- Brain/AI circuit icon -->
  <circle cx="16" cy="14" r="7" fill="none" stroke="white" stroke-width="1.5"/>
  <path d="M12 14c0-2.2 1.8-4 4-4s4 1.8 4 4" fill="none" stroke="white" stroke-width="1.2"/>
  <path d="M14 14a2 2 0 0 1 4 0" fill="none" stroke="white" stroke-width="1.2"/>
  <circle cx="16" cy="14" r="1" fill="white"/>
  <!-- Circuit nodes -->
  <circle cx="16" cy="7" r="1" fill="white"/>
  <circle cx="10" cy="18" r="1" fill="white"/>
  <circle cx="22" cy="18" r="1" fill="white"/>
  <!-- Connection lines -->
  <line x1="16" y1="21" x2="16" y2="24" stroke="white" stroke-width="1" stroke-linecap="round"/>
  <line x1="10" y1="18" x2="7" y2="21" stroke="white" stroke-width="1" stroke-linecap="round"/>
  <line x1="22" y1="18" x2="25" y2="21" stroke="white" stroke-width="1" stroke-linecap="round"/>
  <circle cx="16" cy="25" r="0.8" fill="white"/>
  <circle cx="6.5" cy="21.5" r="0.8" fill="white"/>
  <circle cx="25.5" cy="21.5" r="0.8" fill="white"/>
</svg>
